<mxfile host="65bd71144e">
    <diagram name="Page-1" id="iBVygIOV5pXawWWYZsoG">
        <mxGraphModel dx="1677" dy="801" grid="1" gridSize="10" guides="1" tooltips="1" connect="1" arrows="1" fold="1" page="1" pageScale="1" pageWidth="827" pageHeight="1169" math="0" shadow="0">
            <root>
                <mxCell id="0"/>
                <mxCell id="1" parent="0"/>
                <mxCell id="U97ijTLxAzmazmOhc-ed-1" value="&lt;b&gt;Topic&lt;/b&gt;" style="html=1;whiteSpace=wrap;" parent="1" vertex="1">
                    <mxGeometry x="80" y="120" width="110" height="50" as="geometry"/>
                </mxCell>
                <mxCell id="U97ijTLxAzmazmOhc-ed-2" value="&lt;b&gt;Quiz&lt;/b&gt;" style="html=1;whiteSpace=wrap;" parent="1" vertex="1">
                    <mxGeometry x="200" y="200" width="110" height="50" as="geometry"/>
                </mxCell>
                <mxCell id="U97ijTLxAzmazmOhc-ed-3" value="&lt;b&gt;Question&lt;/b&gt;" style="html=1;whiteSpace=wrap;" parent="1" vertex="1">
                    <mxGeometry x="370" y="230" width="110" height="50" as="geometry"/>
                </mxCell>
                <mxCell id="U97ijTLxAzmazmOhc-ed-6" value="&lt;b&gt;QuestionFeedback&lt;/b&gt;" style="html=1;whiteSpace=wrap;" parent="1" vertex="1">
                    <mxGeometry x="140" y="460" width="110" height="50" as="geometry"/>
                </mxCell>
                <mxCell id="U97ijTLxAzmazmOhc-ed-7" value="Topic owner" style="shape=umlActor;verticalLabelPosition=bottom;verticalAlign=top;html=1;outlineConnect=0;" parent="1" vertex="1">
                    <mxGeometry y="10" width="30" height="60" as="geometry"/>
                </mxCell>
                <mxCell id="U97ijTLxAzmazmOhc-ed-8" value="User" style="shape=umlActor;verticalLabelPosition=bottom;verticalAlign=top;html=1;outlineConnect=0;" parent="1" vertex="1">
                    <mxGeometry y="250" width="30" height="60" as="geometry"/>
                </mxCell>
                <mxCell id="U97ijTLxAzmazmOhc-ed-11" value="" style="endArrow=diamondThin;endFill=0;endSize=24;html=1;rounded=0;entryX=0.5;entryY=1;entryDx=0;entryDy=0;exitX=0;exitY=0.5;exitDx=0;exitDy=0;" parent="1" source="U97ijTLxAzmazmOhc-ed-2" target="U97ijTLxAzmazmOhc-ed-1" edge="1">
                    <mxGeometry width="160" relative="1" as="geometry">
                        <mxPoint x="40" y="250" as="sourcePoint"/>
                        <mxPoint x="200" y="250" as="targetPoint"/>
                    </mxGeometry>
                </mxCell>
                <mxCell id="U97ijTLxAzmazmOhc-ed-13" value="" style="endArrow=diamondThin;endFill=0;endSize=24;html=1;rounded=0;entryX=1;entryY=0.5;entryDx=0;entryDy=0;exitX=0;exitY=0.5;exitDx=0;exitDy=0;" parent="1" source="U97ijTLxAzmazmOhc-ed-3" target="U97ijTLxAzmazmOhc-ed-2" edge="1">
                    <mxGeometry width="160" relative="1" as="geometry">
                        <mxPoint x="310" y="325" as="sourcePoint"/>
                        <mxPoint x="245" y="270" as="targetPoint"/>
                    </mxGeometry>
                </mxCell>
                <mxCell id="U97ijTLxAzmazmOhc-ed-15" value="" style="endArrow=diamondThin;endFill=0;endSize=24;html=1;rounded=0;exitX=0;exitY=0.5;exitDx=0;exitDy=0;" parent="1" source="U97ijTLxAzmazmOhc-ed-1" edge="1">
                    <mxGeometry width="160" relative="1" as="geometry">
                        <mxPoint x="30" y="195" as="sourcePoint"/>
                        <mxPoint x="20" y="100" as="targetPoint"/>
                    </mxGeometry>
                </mxCell>
                <mxCell id="U97ijTLxAzmazmOhc-ed-16" value="&lt;b&gt;QuizSession&lt;/b&gt;" style="html=1;whiteSpace=wrap;" parent="1" vertex="1">
                    <mxGeometry x="110" y="340" width="110" height="50" as="geometry"/>
                </mxCell>
                <mxCell id="U97ijTLxAzmazmOhc-ed-17" value="" style="endArrow=diamondThin;endFill=0;endSize=24;html=1;rounded=0;entryX=0.5;entryY=1;entryDx=0;entryDy=0;exitX=0.5;exitY=0;exitDx=0;exitDy=0;" parent="1" source="U97ijTLxAzmazmOhc-ed-16" target="U97ijTLxAzmazmOhc-ed-2" edge="1">
                    <mxGeometry width="160" relative="1" as="geometry">
                        <mxPoint x="285" y="335" as="sourcePoint"/>
                        <mxPoint x="220" y="280" as="targetPoint"/>
                    </mxGeometry>
                </mxCell>
                <mxCell id="U97ijTLxAzmazmOhc-ed-18" value="" style="endArrow=diamondThin;endFill=0;endSize=24;html=1;rounded=0;entryX=0.5;entryY=1;entryDx=0;entryDy=0;exitX=0.5;exitY=0;exitDx=0;exitDy=0;" parent="1" source="U97ijTLxAzmazmOhc-ed-6" target="U97ijTLxAzmazmOhc-ed-16" edge="1">
                    <mxGeometry width="160" relative="1" as="geometry">
                        <mxPoint x="30" y="560" as="sourcePoint"/>
                        <mxPoint x="120" y="470" as="targetPoint"/>
                    </mxGeometry>
                </mxCell>
                <mxCell id="U97ijTLxAzmazmOhc-ed-19" value="" style="endArrow=diamondThin;endFill=0;endSize=24;html=1;rounded=0;exitX=0;exitY=0.5;exitDx=0;exitDy=0;" parent="1" source="U97ijTLxAzmazmOhc-ed-16" edge="1">
                    <mxGeometry width="160" relative="1" as="geometry">
                        <mxPoint x="100" y="345" as="sourcePoint"/>
                        <mxPoint x="40" y="300" as="targetPoint"/>
                    </mxGeometry>
                </mxCell>
                <mxCell id="2" value="&lt;b&gt;Option&lt;/b&gt;" style="html=1;whiteSpace=wrap;" vertex="1" parent="1">
                    <mxGeometry x="490" y="310" width="110" height="50" as="geometry"/>
                </mxCell>
                <mxCell id="3" value="" style="endArrow=diamondThin;endFill=0;endSize=24;html=1;rounded=0;entryX=0.5;entryY=1;entryDx=0;entryDy=0;exitX=0;exitY=0.5;exitDx=0;exitDy=0;" edge="1" parent="1" source="2" target="U97ijTLxAzmazmOhc-ed-3">
                    <mxGeometry width="160" relative="1" as="geometry">
                        <mxPoint x="480" y="330" as="sourcePoint"/>
                        <mxPoint x="420" y="300" as="targetPoint"/>
                    </mxGeometry>
                </mxCell>
                <mxCell id="4" value="&lt;b&gt;QuizSessionQuestion&lt;/b&gt;" style="html=1;whiteSpace=wrap;" vertex="1" parent="1">
                    <mxGeometry x="290" y="350" width="140" height="50" as="geometry"/>
                </mxCell>
                <mxCell id="5" value="" style="endArrow=diamondThin;endFill=0;endSize=24;html=1;rounded=0;entryX=1;entryY=0.5;entryDx=0;entryDy=0;exitX=0;exitY=0.5;exitDx=0;exitDy=0;" edge="1" parent="1" source="4" target="U97ijTLxAzmazmOhc-ed-16">
                    <mxGeometry width="160" relative="1" as="geometry">
                        <mxPoint x="300" y="380" as="sourcePoint"/>
                        <mxPoint x="240" y="350" as="targetPoint"/>
                    </mxGeometry>
                </mxCell>
            </root>
        </mxGraphModel>
    </diagram>
</mxfile>